<svg width="30" height="30" viewBox="0 0 30 30" fill="none" xmlns="http://www.w3.org/2000/svg">
<circle cx="15" cy="15" r="15" fill="white"/>
<path d="M24.9466 12.941C24.8546 12.5442 24.6771 12.1722 24.4266 11.851C24.1723 11.5322 23.8515 11.2729 23.4866 11.091C23.1988 10.9494 22.8864 10.8646 22.5666 10.841C22.4035 9.09111 21.628 7.45496 20.3766 6.221C18.9516 4.79818 17.0202 3.99902 15.0066 3.99902C12.9929 3.99902 11.0615 4.79818 9.63655 6.221C8.38514 7.45496 7.60956 9.09111 7.44655 10.841C7.12669 10.8646 6.81435 10.9494 6.52655 11.091C6.15981 11.27 5.83842 11.5299 5.58655 11.851C5.33412 12.1715 5.15644 12.5443 5.06648 12.9422C4.97651 13.3401 4.97654 13.7531 5.06655 14.151L6.63655 20.581C6.90678 21.5662 7.49393 22.435 8.3073 23.0532C9.12066 23.6713 10.115 24.0044 11.1366 24.001H18.8466C19.8716 24.0021 20.8686 23.6658 21.6837 23.0442C22.4987 22.4225 23.0866 21.5499 23.3566 20.561L24.9166 14.151C25.0166 13.755 25.0266 13.341 24.9466 12.941ZM11.8466 19.361C11.8466 19.5599 11.7675 19.7507 11.6269 19.8913C11.4862 20.032 11.2955 20.111 11.0966 20.111C10.8976 20.111 10.7069 20.032 10.5662 19.8913C10.4256 19.7507 10.3466 19.5599 10.3466 19.361V15.421C10.3466 15.2221 10.4256 15.0313 10.5662 14.8907C10.7069 14.75 10.8976 14.671 11.0966 14.671C11.2955 14.671 11.4862 14.75 11.6269 14.8907C11.7675 15.0313 11.8466 15.2221 11.8466 15.421V19.361ZM15.7566 19.361C15.7566 19.4595 15.7372 19.557 15.6995 19.648C15.6618 19.739 15.6065 19.8217 15.5369 19.8913C15.4672 19.961 15.3846 20.0162 15.2936 20.0539C15.2026 20.0916 15.105 20.111 15.0066 20.111C14.9081 20.111 14.8105 20.0916 14.7195 20.0539C14.6285 20.0162 14.5459 19.961 14.4762 19.8913C14.4066 19.8217 14.3513 19.739 14.3136 19.648C14.276 19.557 14.2566 19.4595 14.2566 19.361V15.421C14.2566 15.2221 14.3356 15.0313 14.4762 14.8907C14.6169 14.75 14.8076 14.671 15.0066 14.671C15.2055 14.671 15.3962 14.75 15.5369 14.8907C15.6775 15.0313 15.7566 15.2221 15.7566 15.421V19.361ZM19.6666 19.361C19.6666 19.5599 19.5875 19.7507 19.4469 19.8913C19.3062 20.032 19.1155 20.111 18.9166 20.111C18.7176 20.111 18.5269 20.032 18.3862 19.8913C18.2456 19.7507 18.1666 19.5599 18.1666 19.361V15.421C18.1666 15.2221 18.2456 15.0313 18.3862 14.8907C18.5269 14.75 18.7176 14.671 18.9166 14.671C19.1155 14.671 19.3062 14.75 19.4469 14.8907C19.5875 15.0313 19.6666 15.2221 19.6666 15.421V19.361ZM8.95655 10.821C9.12102 9.47863 9.73417 8.23118 10.6966 7.281C11.8415 6.14152 13.3912 5.50182 15.0066 5.50182C16.6219 5.50182 18.1716 6.14152 19.3166 7.281C20.2789 8.23118 20.8921 9.47863 21.0566 10.821H8.95655Z" fill="#03533A"/>
</svg>
