<svg width="15" height="15" viewBox="0 0 15 15" fill="none" xmlns="http://www.w3.org/2000/svg">
<path d="M1.875 1.875L13.125 13.125" stroke="black" stroke-width="2" stroke-linecap="round" stroke-linejoin="round"/>
<path fill-rule="evenodd" clip-rule="evenodd" d="M3.3749 3.89378C3.0999 4.10003 2.84802 4.31753 2.61865 4.53878C1.85261 5.28275 1.2184 6.15133 0.743021 7.10753C0.683826 7.22979 0.653076 7.36387 0.653076 7.49972C0.653076 7.63556 0.683826 7.76964 0.743021 7.8919C1.21815 8.84828 1.85215 9.71707 2.61802 10.4613C3.7124 11.5144 5.32365 12.5 7.4999 12.5C8.8974 12.5 10.0624 12.0938 11.0061 11.5238L8.54115 9.0594C8.18047 9.30033 7.74741 9.40875 7.31576 9.36621C6.88411 9.32366 6.48056 9.13278 6.17385 8.82607C5.86715 8.51937 5.67626 8.11582 5.63372 7.68416C5.59117 7.25251 5.6996 6.81946 5.94052 6.45878L3.37552 3.89315L3.3749 3.89378ZM12.9161 9.89878C13.4476 9.29057 13.8982 8.61624 14.2568 7.89253C14.316 7.77026 14.3467 7.63618 14.3467 7.50034C14.3467 7.3645 14.316 7.23042 14.2568 7.10815C13.7816 6.15178 13.1476 5.28299 12.3818 4.53878C11.2874 3.48565 9.67677 2.50003 7.4999 2.50003C6.90747 2.49831 6.31741 2.57459 5.7449 2.7269L12.9161 9.89878Z" fill="black"/>
</svg>
