<svg width="15" height="15" viewBox="0 0 15 15" fill="none" xmlns="http://www.w3.org/2000/svg">
<path d="M7.5 2.5C9.24188 2.5 10.7894 3.28563 11.8912 4.25813C12.4444 4.74625 12.9 5.29437 13.2212 5.84C13.5369 6.37562 13.75 6.95625 13.75 7.5C13.75 8.04375 13.5375 8.62437 13.2212 9.16C12.9 9.70563 12.4444 10.2538 11.8912 10.7419C10.7894 11.7144 9.24125 12.5 7.5 12.5C5.75812 12.5 4.21062 11.7144 3.10875 10.7419C2.55562 10.2538 2.1 9.70563 1.77875 9.16C1.4625 8.62437 1.25 8.04375 1.25 7.5C1.25 6.95625 1.4625 6.37562 1.77875 5.84C2.1 5.29437 2.55562 4.74625 3.10875 4.25813C4.21062 3.28563 5.75875 2.5 7.5 2.5ZM7.5 3.75C6.135 3.75 4.87 4.37063 3.93625 5.195C3.47125 5.605 3.10375 6.05313 2.85562 6.47438C2.60187 6.90563 2.5 7.2625 2.5 7.5C2.5 7.7375 2.60187 8.09437 2.85562 8.52562C3.10375 8.94688 3.47125 9.39437 3.93625 9.805C4.87 10.6294 6.135 11.25 7.5 11.25C8.865 11.25 10.13 10.6294 11.0637 9.805C11.5287 9.39437 11.8962 8.94688 12.1444 8.52562C12.3981 8.09437 12.5 7.7375 12.5 7.5C12.5 7.2625 12.3981 6.90563 12.1444 6.47438C11.8962 6.05313 11.5287 5.60563 11.0637 5.195C10.13 4.37063 8.865 3.75 7.5 3.75ZM7.5 5.625C7.555 5.625 7.60938 5.62729 7.66313 5.63187C7.52743 5.86991 7.4737 6.14593 7.51021 6.41749C7.54672 6.68904 7.67144 6.94108 7.86518 7.13482C8.05892 7.32856 8.31096 7.45328 8.58251 7.48979C8.85407 7.5263 9.13009 7.47257 9.36812 7.33687C9.40099 7.71323 9.3194 8.09074 9.13405 8.41993C8.9487 8.74912 8.66822 9.01465 8.32938 9.18171C7.99054 9.34877 7.60913 9.40958 7.23514 9.35617C6.86115 9.30275 6.51201 9.13761 6.23348 8.88238C5.95495 8.62714 5.76002 8.29372 5.67422 7.9258C5.58843 7.55789 5.61578 7.17263 5.75268 6.82052C5.88959 6.46842 6.12967 6.16588 6.44146 5.95255C6.75325 5.73922 7.12221 5.62505 7.5 5.625Z" fill="black"/>
</svg>
