<svg width="17" height="17" viewBox="0 0 17 17" fill="none" xmlns="http://www.w3.org/2000/svg">
<path d="M12.9821 15.9374C12.334 15.9374 11.4235 15.703 10.0602 14.9413C8.40238 14.0117 7.12008 13.1534 5.47121 11.5088C3.88145 9.92003 3.10781 8.8914 2.02506 6.92113C0.801857 4.69652 1.01037 3.53042 1.24346 3.03205C1.52104 2.43638 1.93076 2.08011 2.46035 1.7265C2.76116 1.52942 3.07948 1.36047 3.41129 1.22181C3.44449 1.20753 3.47537 1.19392 3.50293 1.18164C3.66729 1.10759 3.91631 0.995698 4.23174 1.11523C4.44225 1.19425 4.63018 1.35595 4.92436 1.64648C5.52766 2.24148 6.35209 3.56662 6.65623 4.2174C6.86043 4.65601 6.99557 4.94554 6.9959 5.27027C6.9959 5.65044 6.80465 5.94363 6.57256 6.26005C6.52906 6.31949 6.4859 6.37626 6.44406 6.43138C6.19139 6.76341 6.13594 6.85937 6.17246 7.0307C6.2465 7.37501 6.79867 8.39999 7.70611 9.30544C8.61356 10.2109 9.60899 10.7282 9.95463 10.8019C10.1333 10.8401 10.2312 10.7823 10.5739 10.5207C10.623 10.4832 10.6735 10.4443 10.7263 10.4055C11.0802 10.1422 11.3598 9.95589 11.731 9.95589H11.733C12.0561 9.95589 12.3326 10.096 12.7908 10.3271C13.3885 10.6286 14.7535 11.4424 15.3521 12.0464C15.6433 12.3399 15.8057 12.5271 15.885 12.7373C16.0046 13.0537 15.892 13.3018 15.8186 13.4678C15.8063 13.4953 15.7927 13.5256 15.7785 13.5591C15.6387 13.8903 15.4688 14.208 15.2708 14.508C14.9178 15.036 14.5602 15.4447 13.9632 15.7226C13.6567 15.8676 13.3212 15.9411 12.9821 15.9374Z" fill="black"/>
</svg>
