<svg width="17" height="17" viewBox="0 0 17 17" fill="none" xmlns="http://www.w3.org/2000/svg">
<path d="M0.362344 8.39837C0.361945 9.8267 0.73807 11.2214 1.45327 12.4506L0.293945 16.6507L4.62576 15.5237C5.82389 16.1709 7.16629 16.51 8.53045 16.5101H8.53403C13.0374 16.5101 16.7032 12.874 16.7051 8.40476C16.706 6.23911 15.8568 4.20267 14.3139 2.67056C12.7713 1.13858 10.7197 0.294445 8.5337 0.293457C4.02983 0.293457 0.36427 3.92935 0.36241 8.39837" fill="url(#paint0_linear_505_939)"/>
<path d="M0.0710547 8.39563C0.0705898 9.87535 0.460195 11.3199 1.20089 12.5932L0 16.9438L4.48714 15.7764C5.72349 16.4453 7.1155 16.7979 8.53194 16.7984H8.53559C13.2005 16.7984 16.998 13.0316 17 8.40235C17.0008 6.15888 16.121 4.04923 14.523 2.46223C12.9248 0.875434 10.7998 0.000922481 8.53559 0C3.86989 0 0.0729141 3.76636 0.0710547 8.39563ZM2.74331 12.3739L2.57577 12.11C1.87146 10.9988 1.49972 9.71471 1.50025 8.39615C1.50171 4.54842 4.6576 1.41798 8.53825 1.41798C10.4175 1.41878 12.1837 2.14569 13.5121 3.46457C14.8404 4.78359 15.5713 6.53696 15.5709 8.40182C15.5691 12.2496 12.4132 15.3804 8.53559 15.3804H8.5328C7.27022 15.3797 6.03195 15.0433 4.95205 14.4075L4.69506 14.2563L2.0323 14.949L2.74331 12.3739Z" fill="url(#paint1_linear_505_939)"/>
<path d="M6.4198 4.88579C6.26136 4.53637 6.09461 4.52932 5.94394 4.52319C5.82055 4.51792 5.67951 4.51832 5.53859 4.51832C5.39755 4.51832 5.16838 4.57096 4.97467 4.78083C4.78077 4.99089 4.23438 5.49852 4.23438 6.53097C4.23438 7.56343 4.99227 8.56129 5.09792 8.70144C5.20371 8.84132 6.56105 11.0279 8.71075 11.869C10.4973 12.5681 10.8609 12.429 11.2487 12.394C11.6365 12.3591 12.5 11.8865 12.6762 11.3965C12.8525 10.9065 12.8525 10.4865 12.7997 10.3987C12.7468 10.3113 12.6057 10.2588 12.3942 10.1539C12.1827 10.049 11.1429 9.54122 10.949 9.47118C10.7551 9.4012 10.6142 9.36628 10.4731 9.57641C10.3321 9.78621 9.92705 10.2588 9.8036 10.3987C9.68029 10.539 9.55684 10.5565 9.3454 10.4515C9.13376 10.3462 8.45263 10.1249 7.64454 9.41003C7.0158 8.85378 6.59133 8.16686 6.46795 7.95673C6.34457 7.74693 6.45473 7.6332 6.56079 7.52864C6.65581 7.43461 6.77236 7.28358 6.87821 7.16109C6.98366 7.03853 7.01886 6.9511 7.08938 6.81114C7.15997 6.67106 7.12464 6.5485 7.07185 6.44353C7.01886 6.33857 6.60787 5.30071 6.4198 4.88579Z" fill="white"/>
<defs>
<linearGradient id="paint0_linear_505_939" x1="820.853" y1="1636.02" x2="820.853" y2="0.293457" gradientUnits="userSpaceOnUse">
<stop stop-color="#1FAF38"/>
<stop offset="1" stop-color="#60D669"/>
</linearGradient>
<linearGradient id="paint1_linear_505_939" x1="850" y1="1694.38" x2="850" y2="0" gradientUnits="userSpaceOnUse">
<stop stop-color="#F9F9F9"/>
<stop offset="1" stop-color="white"/>
</linearGradient>
</defs>
</svg>
